<?xml version="1.0" standalone="no"?>
<!DOCTYPE svg PUBLIC "-//W3C//DTD SVG 20010904//EN"
 "http://www.w3.org/TR/2001/REC-SVG-20010904/DTD/svg10.dtd">
<svg version="1.0" xmlns="http://www.w3.org/2000/svg"
 width="780.000000pt" height="780.000000pt" viewBox="0 0 780.000000 780.000000"
 preserveAspectRatio="xMidYMid meet">
<metadata>
Created by potrace 1.14, written by Peter Selinger 2001-2017
</metadata>
<g transform="translate(0.000000,780.000000) scale(0.100000,-0.100000)"
fill="#000000" stroke="none">
<path d="M0 3900 l0 -3900 3900 0 3900 0 0 3900 0 3900 -3900 0 -3900 0 0
-3900z m5627 2910 c94 -38 173 -50 331 -50 123 0 162 -8 162 -35 0 -7 11 -27
25 -43 30 -36 31 -47 6 -104 -27 -63 -37 -119 -62 -338 -12 -107 -27 -204 -34
-215 -14 -21 -34 -93 -60 -207 -8 -36 -32 -105 -54 -152 -22 -47 -43 -98 -47
-113 -3 -15 -14 -49 -25 -75 -10 -25 -28 -116 -39 -202 -26 -212 -34 -240
-129 -465 -38 -90 -48 -127 -67 -243 -8 -49 -23 -109 -33 -131 -10 -23 -24
-60 -31 -82 -7 -22 -25 -69 -40 -105 -16 -36 -33 -94 -40 -130 -6 -36 -17 -85
-25 -110 -8 -25 -26 -121 -40 -214 -19 -133 -29 -174 -45 -191 -12 -13 -20
-35 -20 -57 0 -20 -7 -41 -15 -48 -8 -7 -15 -20 -15 -29 0 -10 -16 -44 -36
-77 -86 -142 -117 -247 -139 -479 -10 -105 -21 -165 -34 -196 -12 -24 -21 -54
-21 -66 0 -12 -11 -35 -25 -51 -35 -41 -41 -65 -49 -172 -12 -161 -39 -259
-98 -366 -29 -52 -67 -119 -84 -150 -45 -80 -93 -127 -146 -141 -28 -8 -51
-22 -61 -37 -43 -65 -94 -275 -108 -445 -7 -86 -15 -128 -34 -169 -14 -30 -25
-60 -25 -68 0 -19 -58 -82 -91 -100 -42 -21 -82 -18 -108 10 -31 32 -38 99
-17 149 8 21 22 85 31 144 20 133 32 192 56 272 10 35 22 95 25 135 4 39 14
83 22 97 21 37 10 56 -40 70 -74 20 -129 17 -166 -9 -45 -33 -83 -86 -93 -130
-7 -32 -24 -87 -62 -196 -11 -31 -60 -66 -94 -66 -56 0 -110 128 -99 236 6 60
5 64 -19 80 -14 9 -57 20 -95 24 -39 4 -77 13 -85 20 -8 7 -26 36 -40 65 -23
47 -26 67 -31 206 -5 125 -2 164 11 209 9 30 20 96 25 145 5 50 13 103 19 118
20 52 11 247 -11 247 -10 0 -12 -5 -27 -90 -7 -36 -23 -86 -36 -111 -13 -26
-47 -125 -74 -220 -87 -302 -127 -398 -208 -497 -65 -80 -117 -88 -189 -31
-21 16 -44 28 -53 27 -8 -2 -28 -26 -45 -54 -17 -28 -55 -80 -85 -115 -64 -77
-97 -169 -107 -299 -4 -47 -13 -94 -20 -105 -8 -11 -14 -38 -14 -62 0 -23 -6
-48 -14 -55 -7 -8 -17 -25 -21 -38 -14 -46 -53 -115 -77 -137 -21 -19 -90 -53
-108 -53 -5 0 -17 21 -27 48 -13 35 -18 73 -17 152 0 102 2 108 41 190 47 97
81 235 90 355 l6 82 -56 -8 c-31 -5 -68 -14 -82 -19 -15 -6 -43 -10 -64 -10
-32 0 -45 7 -78 43 -22 24 -54 72 -72 108 -30 62 -31 68 -34 220 -3 143 -5
158 -25 184 -12 15 -22 35 -22 45 0 10 -9 29 -21 44 -26 34 -50 129 -56 226
-5 89 25 253 63 345 55 129 66 172 71 261 9 151 -26 324 -76 378 -42 45 -62
189 -46 328 4 33 0 111 -9 190 -16 129 -66 1070 -66 1233 0 54 5 87 15 101 16
23 16 29 18 294 1 119 -3 212 -12 262 -9 51 -10 82 -4 90 6 8 7 49 2 103 -4
50 -4 173 -1 273 5 183 5 184 29 193 13 5 34 9 46 9 12 0 49 12 82 26 81 35
229 74 290 75 37 1 66 -6 115 -30 36 -17 70 -31 76 -31 7 0 37 -12 69 -26 53
-24 61 -26 113 -15 30 6 82 11 115 11 55 0 62 -3 91 -33 17 -18 45 -60 61 -93
l30 -59 -2 -230 c-2 -238 -15 -510 -34 -700 -9 -95 -8 -116 6 -155 43 -118 43
-146 6 -540 -27 -284 -47 -842 -32 -898 17 -61 71 -70 105 -17 24 36 46 131
46 196 0 87 26 194 64 263 51 92 74 178 101 394 29 223 46 303 74 358 11 22
27 74 35 117 8 43 18 82 21 87 12 19 61 38 140 55 82 17 100 15 205 -16 55
-17 81 -19 170 -14 l105 7 62 -42 c101 -68 133 -101 144 -145 16 -64 22 -620
10 -815 -18 -278 -29 -380 -42 -396 -7 -8 -14 -58 -17 -114 -4 -91 -3 -100 13
-100 26 0 94 76 121 134 12 28 27 90 33 137 6 48 23 129 37 180 30 113 66 286
88 429 9 58 30 146 47 195 23 67 30 102 27 137 -4 36 -1 50 14 62 10 9 18 27
18 41 0 13 9 47 20 75 25 64 67 271 76 370 8 105 66 274 110 323 19 20 34 45
34 56 0 10 7 24 16 32 29 24 45 71 59 172 7 56 22 129 33 162 11 33 25 96 31
140 7 47 21 100 36 128 14 27 25 59 25 71 0 11 8 26 19 33 10 6 21 27 25 46 9
47 52 84 132 112 97 34 166 33 261 -5z"/>
</g>
</svg>
